<?xml version="1.0" encoding="utf-8"?>
<!-- Generator: Adobe Illustrator 25.2.0, SVG Export Plug-In . SVG Version: 6.00 Build 0)  -->
<svg version="1.1" id="Layer_1" xmlns="http://www.w3.org/2000/svg" xmlns:xlink="http://www.w3.org/1999/xlink" x="0px" y="0px"
	 viewBox="0 0 307.28 322.19" style="enable-background:new 0 0 307.28 322.19;" xml:space="preserve">
<style type="text/css">
	.st0{clip-path:url(#SVGID_2_);}
	.st1{clip-path:url(#SVGID_4_);}
	.st2{clip-path:url(#SVGID_6_);fill:url(#SVGID_7_);}
	.st3{clip-path:url(#SVGID_9_);fill:url(#SVGID_10_);}
	.st4{clip-path:url(#SVGID_12_);fill:url(#SVGID_13_);}
	.st5{clip-path:url(#SVGID_15_);fill:url(#SVGID_16_);}
	.st6{clip-path:url(#SVGID_18_);fill:url(#SVGID_19_);}
	.st7{clip-path:url(#SVGID_21_);fill:url(#SVGID_22_);}
	.st8{clip-path:url(#SVGID_24_);fill:url(#SVGID_25_);}
	.st9{opacity:0.7;clip-path:url(#SVGID_27_);}
	.st10{clip-path:url(#SVGID_29_);}
	.st11{clip-path:url(#SVGID_31_);fill:url(#SVGID_32_);}
	.st12{clip-path:url(#SVGID_34_);}
	.st13{clip-path:url(#SVGID_36_);fill:url(#SVGID_37_);}
	.st14{opacity:0.5;clip-path:url(#SVGID_27_);}
	.st15{clip-path:url(#SVGID_39_);fill:#FFFFFF;}
</style>
<g>
	<g>
		<defs>
			
				<rect id="SVGID_1_" x="-7.86" y="-20.2" transform="matrix(0.641 -0.7675 0.7675 0.641 -70.9319 188.864)" width="348.6" height="380.93"/>
		</defs>
		<clipPath id="SVGID_2_">
			<use xlink:href="#SVGID_1_"  style="overflow:visible;"/>
		</clipPath>
		<g class="st0">
			<defs>
				
					<rect id="SVGID_3_" x="-7.86" y="-20.2" transform="matrix(0.641 -0.7675 0.7675 0.641 -70.9319 188.864)" width="348.6" height="380.93"/>
			</defs>
			<clipPath id="SVGID_4_">
				<use xlink:href="#SVGID_3_"  style="overflow:visible;"/>
			</clipPath>
			<g class="st1">
				<defs>
					<path id="SVGID_5_" d="M51.94,48.55C41.19,61.43,33.76,75.98,29.56,91.16c12.89,0,25.85,3.52,37.31,10.71
						c0.04-0.18,0.08-0.35,0.13-0.52c0.07-0.27,0.14-0.53,0.21-0.79c0.28-1.07,0.57-2.14,0.89-3.21c0.09-0.34,0.2-0.68,0.3-1.02
						c0.2-0.67,0.42-1.34,0.63-2.02c0.2-0.62,0.41-1.24,0.62-1.85c0.2-0.61,0.42-1.22,0.64-1.82c0.09-0.25,0.18-0.51,0.28-0.77
						c1.94-5.22,4.27-10.34,7.01-15.31c0.15-0.26,0.3-0.52,0.45-0.79c0.18-0.33,0.38-0.67,0.57-1c0.57-1.01,1.16-2,1.78-2.98
						c0.18-0.3,0.37-0.6,0.56-0.91c0.15-0.24,0.3-0.48,0.45-0.71c0.18-0.28,0.36-0.57,0.55-0.85c1.17-1.79,2.39-3.55,3.66-5.29
						c0.53-0.72,1.08-1.45,1.63-2.16c0.6-0.77,1.21-1.54,1.83-2.3c0.31-0.38,0.62-0.76,0.93-1.14c0.54-0.65,1.1-1.3,1.65-1.93
						c0.41-0.47,0.82-0.93,1.24-1.39c0.33-0.36,0.66-0.72,0.99-1.08c0.76-0.83,1.53-1.63,2.31-2.43c0.24-0.24,0.47-0.48,0.71-0.72
						c0.61-0.61,1.22-1.21,1.84-1.8c0.26-0.25,0.52-0.5,0.78-0.74c0.39-0.37,0.79-0.74,1.19-1.1c0.34-0.31,0.67-0.61,1.01-0.91
						c0.4-0.36,0.8-0.71,1.2-1.05c0.3-0.27,0.61-0.53,0.91-0.78c0.3-0.25,0.6-0.51,0.9-0.76c1.12-0.93,2.25-1.83,3.39-2.71
						c0.36-0.28,0.73-0.56,1.09-0.83c0.35-0.27,0.7-0.52,1.06-0.78c1.16-0.84,2.33-1.67,3.52-2.48c0.34-0.22,0.67-0.45,1-0.66
						c0.48-0.32,0.96-0.63,1.44-0.93c0.28-0.18,0.57-0.36,0.85-0.53c0.71-0.44,1.43-0.88,2.15-1.31c0.83-0.49,1.67-0.98,2.51-1.45
						c0.49-0.27,0.97-0.54,1.46-0.8c0.3-0.16,0.6-0.32,0.89-0.48c0.82-0.43,1.64-0.85,2.47-1.27c0.78-0.39,1.57-0.77,2.36-1.15
						c0.05-0.02,0.09-0.04,0.13-0.06c0.77-0.36,1.54-0.7,2.31-1.05c0.82-0.36,1.64-0.71,2.46-1.05c0.83-0.34,1.66-0.68,2.49-0.99
						c0.41-0.16,0.81-0.31,1.22-0.46c0.42-0.16,0.85-0.32,1.28-0.47c0.42-0.15,0.84-0.3,1.26-0.45c0.42-0.14,0.84-0.29,1.26-0.43
						c0.47-0.16,0.94-0.31,1.41-0.46c0.38-0.12,0.75-0.24,1.13-0.35c0.42-0.13,0.85-0.26,1.27-0.38c0.42-0.12,0.85-0.25,1.28-0.37
						c0.43-0.12,0.85-0.24,1.28-0.35c0.86-0.23,1.71-0.45,2.57-0.66c1.29-0.32,2.59-0.61,3.88-0.88c1.3-0.27,2.61-0.52,3.91-0.75
						c3.05-0.53,6.12-0.93,9.2-1.21c1.32-0.11,2.64-0.21,3.96-0.29c0.44-0.02,0.89-0.05,1.33-0.06c0.88-0.04,1.77-0.07,2.65-0.09
						c0.44-0.01,0.88-0.01,1.33-0.02c0.44-0.01,0.88-0.01,1.33,0c0.44,0,0.88,0.01,1.33,0.01c0.73,0.01,1.46,0.03,2.19,0.06
						C136.9-2.02,84.3,9.82,51.94,48.55"/>
				</defs>
				<clipPath id="SVGID_6_">
					<use xlink:href="#SVGID_5_"  style="overflow:visible;"/>
				</clipPath>
				
					<linearGradient id="SVGID_7_" gradientUnits="userSpaceOnUse" x1="-752.496" y1="-364.068" x2="-751.496" y2="-364.068" gradientTransform="matrix(32.925 27.4995 27.4995 -32.925 34854.1406 8727.1504)">
					<stop  offset="0" style="stop-color:#EEAE64"/>
					<stop  offset="1" style="stop-color:#C1465A"/>
				</linearGradient>
				<polygon class="st2" points="121.35,-34.55 181.39,15.59 81.82,134.81 21.78,84.67 				"/>
			</g>
			<g class="st1">
				<defs>
					<path id="SVGID_8_" d="M189.44,261.63c-6.32-5.28-11.48-11.43-15.45-18.13c-16.65-0.5-33.27-4.64-48.58-12.52
						c-2.77-1.43-5.48-2.97-8.16-4.64c6.45,10.93,14.84,20.97,25.14,29.57c35.07,29.29,82.55,33.92,121.38,15.8
						C239.9,282.54,210.91,279.56,189.44,261.63"/>
				</defs>
				<clipPath id="SVGID_9_">
					<use xlink:href="#SVGID_8_"  style="overflow:visible;"/>
				</clipPath>
				
					<linearGradient id="SVGID_10_" gradientUnits="userSpaceOnUse" x1="-752.496" y1="-364.068" x2="-751.496" y2="-364.068" gradientTransform="matrix(-40.1525 -33.536 -33.536 40.1525 -42207.2227 -10342.2627)">
					<stop  offset="0" style="stop-color:#EEAE64"/>
					<stop  offset="1" style="stop-color:#C1465A"/>
				</linearGradient>
				<polygon class="st3" points="221.68,322.12 113.04,231.39 155.14,180.98 263.78,271.71 				"/>
			</g>
			<g class="st1">
				<defs>
					<path id="SVGID_11_" d="M227.46,215.17c-7.6,1.13-15.3,1.49-22.98,1.07c-13.74-0.74-27.42-3.95-40.32-9.73
						c-9.37-4.18-18.32-9.72-26.59-16.62c-11.35-9.48-20.4-20.71-27.06-32.96c-1.47,1.33-2.86,2.78-4.17,4.34
						c-1.9,2.27-3.53,4.68-4.88,7.19c-3.78,6.96-5.49,14.68-5.21,22.3c0.43,11.92,5.72,23.61,15.6,31.86
						c0.39,0.33,0.8,0.66,1.2,0.96c1.38,0.95,2.78,1.87,4.2,2.75c2.67,1.67,5.39,3.21,8.16,4.64c11.94,6.15,24.68,10.02,37.6,11.66
						c3.65,0.46,7.31,0.75,10.98,0.86c4.85,0.15,9.71-0.02,14.53-0.48c8.42-0.82,16.75-2.56,24.82-5.23
						c11.83-3.9,23.1-9.77,33.3-17.56c6.61-5.05,12.77-10.9,18.33-17.55C253.19,209.06,240.48,213.24,227.46,215.17"/>
				</defs>
				<clipPath id="SVGID_12_">
					<use xlink:href="#SVGID_11_"  style="overflow:visible;"/>
				</clipPath>
				
					<linearGradient id="SVGID_13_" gradientUnits="userSpaceOnUse" x1="-752.496" y1="-364.1966" x2="-751.496" y2="-364.1966" gradientTransform="matrix(-42.7121 -20.6781 -20.6781 42.7121 -39522.8164 182.9897)">
					<stop  offset="0" style="stop-color:#EEAE64"/>
					<stop  offset="1" style="stop-color:#C1465A"/>
				</linearGradient>
				<polygon class="st4" points="217,301.75 62.76,227.08 126.39,95.64 280.63,170.32 				"/>
			</g>
			<g class="st1">
				<defs>
					<path id="SVGID_14_" d="M246.64,220.24c-10.2,7.79-21.47,13.65-33.3,17.56c16.58-0.46,33.38,4.88,47.1,16.35
						c16.73,13.97,25.34,34.05,25.29,54.27c9.41-26.91,1.81-57.99-21.36-77.34C258.88,226.49,252.9,222.88,246.64,220.24"/>
				</defs>
				<clipPath id="SVGID_15_">
					<use xlink:href="#SVGID_14_"  style="overflow:visible;"/>
				</clipPath>
				
					<linearGradient id="SVGID_16_" gradientUnits="userSpaceOnUse" x1="-752.496" y1="-364.0865" x2="-751.496" y2="-364.0865" gradientTransform="matrix(-64.9237 -44.6826 -44.6826 64.9237 -64824.4258 -9701.5312)">
					<stop  offset="0" style="stop-color:#EEAE64"/>
					<stop  offset="1" style="stop-color:#C1465A"/>
				</linearGradient>
				<polygon class="st5" points="289.23,310.82 203.03,251.49 234.12,206.32 320.32,265.64 				"/>
			</g>
			<g class="st1">
				<defs>
					<path id="SVGID_17_" d="M79.91,188.77c25.75,37.77,26.7,88.36,0.65,127.38c11.69-4.04,22.46-11.22,30.96-21.4
						c15.36-18.39,19.75-42.29,13.88-63.77c-4.23-2.18-8.36-4.64-12.36-7.39c-0.37-0.25-0.74-0.51-1.1-0.77
						c-0.37-0.26-0.73-0.52-1.1-0.78c-0.32-0.23-0.65-0.47-0.98-0.71c-0.29-0.21-0.57-0.42-0.86-0.64c-0.35-0.26-0.7-0.53-1.06-0.8
						c-0.48-0.37-0.95-0.74-1.43-1.11c-0.71-0.57-1.42-1.14-2.12-1.73c-0.37-0.31-0.75-0.63-1.12-0.95
						c-0.23-0.19-0.45-0.38-0.67-0.57c-0.28-0.24-0.56-0.49-0.83-0.73l-0.09-0.07c-0.35-0.32-0.71-0.64-1.06-0.97
						c-0.49-0.44-0.97-0.88-1.45-1.33c-0.37-0.34-0.73-0.69-1.09-1.04c-0.95-0.92-1.88-1.84-2.79-2.79c-0.3-0.31-0.6-0.62-0.89-0.93
						c-0.44-0.46-0.86-0.92-1.28-1.39c-0.38-0.41-0.76-0.84-1.12-1.25c-0.35-0.39-0.7-0.78-1.03-1.18c-0.03-0.04-0.06-0.07-0.09-0.1
						c-0.35-0.4-0.69-0.81-1.03-1.21c-0.07-0.08-0.14-0.17-0.21-0.25c-0.32-0.38-0.63-0.76-0.94-1.14c-0.24-0.3-0.49-0.6-0.73-0.91
						c-0.21-0.26-0.42-0.53-0.61-0.79c-0.25-0.32-0.5-0.64-0.74-0.96c-0.33-0.43-0.65-0.86-0.97-1.29
						c-0.56-0.77-1.12-1.54-1.66-2.32c-0.21-0.3-0.41-0.59-0.61-0.89c-0.26-0.37-0.51-0.75-0.76-1.12
						c-0.28-0.41-0.55-0.83-0.82-1.24c-0.61-0.94-1.2-1.88-1.77-2.82c-0.03-0.04-0.05-0.08-0.08-0.13
						C79.95,188.69,79.93,188.73,79.91,188.77"/>
				</defs>
				<clipPath id="SVGID_18_">
					<use xlink:href="#SVGID_17_"  style="overflow:visible;"/>
				</clipPath>
				
					<linearGradient id="SVGID_19_" gradientUnits="userSpaceOnUse" x1="-752.496" y1="-363.9106" x2="-751.496" y2="-363.9106" gradientTransform="matrix(18.1548 -62.5418 -62.5418 -18.1548 -9024.208 -53378.7188)">
					<stop  offset="0" style="stop-color:#EEAE64"/>
					<stop  offset="1" style="stop-color:#C1465A"/>
				</linearGradient>
				<polygon class="st6" points="7.15,299.05 42.37,177.73 161.1,212.2 125.88,333.51 				"/>
			</g>
			<g class="st1">
				<defs>
					<path id="SVGID_20_" d="M59.09,165.76c-1.31,4.55-2.91,9.04-4.81,13.44c-4.26,9.89-10,19.33-17.25,28.02
						c-7.75,9.27-16.66,17.01-26.34,23.16c21.75,1.48,43.89-7.12,58.93-25.13c4.28-5.12,7.71-10.67,10.29-16.48
						c0.02-0.04,0.04-0.08,0.06-0.12c-0.25-0.42-0.5-0.84-0.76-1.27c-0.01-0.02-0.03-0.05-0.05-0.08c-0.24-0.4-0.47-0.81-0.7-1.21
						c-0.06-0.11-0.12-0.21-0.18-0.31c-0.25-0.44-0.49-0.88-0.73-1.32c-0.51-0.91-0.99-1.82-1.46-2.74
						c-0.02-0.04-0.04-0.08-0.06-0.12c-0.29-0.55-0.57-1.11-0.84-1.67c-0.22-0.45-0.44-0.9-0.65-1.35c-0.71-1.49-1.39-2.99-2.03-4.5
						c-0.27-0.63-0.53-1.26-0.78-1.89c-0.15-0.38-0.31-0.76-0.46-1.15c-0.2-0.51-0.4-1.02-0.58-1.53c-0.16-0.44-0.33-0.89-0.49-1.33
						c-0.04-0.12-0.09-0.25-0.14-0.39c-0.3-0.87-0.6-1.73-0.89-2.6c-0.57-1.74-1.1-3.5-1.58-5.26c-0.41-1.49-0.79-2.99-1.14-4.5
						c-0.11-0.46-0.21-0.91-0.31-1.38c-0.13-0.6-0.26-1.21-0.38-1.81c-0.08-0.4-0.16-0.79-0.24-1.19c-0.05-0.25-0.1-0.5-0.14-0.76
						c-0.08-0.41-0.16-0.83-0.22-1.25c-0.1-0.54-0.18-1.07-0.27-1.61c-0.08-0.52-0.16-1.05-0.24-1.58
						c-0.08-0.55-0.15-1.09-0.23-1.64c-0.07-0.54-0.13-1.08-0.2-1.62c-0.25-2.16-0.44-4.32-0.56-6.49
						c-0.03-0.54-0.06-1.09-0.08-1.62c-0.03-0.69-0.06-1.38-0.07-2.07C63.7,143.6,62.23,154.85,59.09,165.76"/>
				</defs>
				<clipPath id="SVGID_21_">
					<use xlink:href="#SVGID_20_"  style="overflow:visible;"/>
				</clipPath>
				
					<linearGradient id="SVGID_22_" gradientUnits="userSpaceOnUse" x1="-752.496" y1="-364.1166" x2="-751.496" y2="-364.1166" gradientTransform="matrix(58.4667 -52.0477 -52.0477 -58.4667 25061.3223 -60235.6367)">
					<stop  offset="0" style="stop-color:#EEAE64"/>
					<stop  offset="1" style="stop-color:#C1465A"/>
				</linearGradient>
				<polygon class="st7" points="-17.06,204.13 69.16,127.38 113.62,177.32 27.4,254.07 				"/>
			</g>
			<g class="st1">
				<defs>
					<path id="SVGID_23_" d="M244.95,37.61c-0.38-0.28-0.76-0.56-1.14-0.83c-0.38-0.27-0.76-0.54-1.15-0.81
						c-0.29-0.2-0.59-0.41-0.89-0.61c-0.17-0.12-0.34-0.23-0.51-0.35c-1.08-0.73-2.17-1.44-3.26-2.13c-0.4-0.25-0.79-0.49-1.19-0.73
						c-0.39-0.24-0.79-0.48-1.19-0.72c-0.4-0.24-0.8-0.47-1.2-0.7c-0.79-0.46-1.6-0.91-2.41-1.35c-0.41-0.22-0.81-0.44-1.21-0.65
						c-0.41-0.22-0.83-0.44-1.25-0.65c-0.39-0.2-0.79-0.4-1.18-0.6c-0.41-0.2-0.82-0.4-1.23-0.6c-0.38-0.18-0.76-0.36-1.15-0.55
						c-0.44-0.2-0.88-0.41-1.32-0.61c-0.42-0.19-0.83-0.37-1.25-0.56c-0.41-0.18-0.83-0.36-1.25-0.54
						c-0.41-0.18-0.83-0.36-1.26-0.53c-0.97-0.4-1.94-0.79-2.92-1.16c-0.29-0.11-0.58-0.21-0.87-0.32c-0.54-0.2-1.08-0.4-1.62-0.58
						c-0.69-0.25-1.39-0.48-2.08-0.72c-0.47-0.15-0.94-0.3-1.41-0.46c-0.85-0.27-1.71-0.53-2.57-0.78c-2.58-0.75-5.19-1.41-7.8-1.97
						c-0.81-0.17-1.61-0.34-2.41-0.49c-0.51-0.1-1.01-0.2-1.53-0.29c-0.87-0.16-1.75-0.31-2.63-0.44c-0.44-0.07-0.88-0.13-1.32-0.2
						c-0.44-0.07-0.88-0.12-1.32-0.18c-0.44-0.06-0.88-0.12-1.32-0.17c-0.44-0.05-0.88-0.1-1.33-0.15
						c-0.44-0.05-0.88-0.09-1.32-0.13c-1.77-0.17-3.54-0.3-5.3-0.38c-0.44-0.02-0.89-0.04-1.33-0.06c-0.15,0-0.3-0.01-0.46-0.01
						c-0.73-0.03-1.46-0.05-2.19-0.06c-0.45,0-0.89-0.01-1.33-0.01c-0.45,0-0.89,0-1.33,0c-0.44,0-0.88,0.01-1.33,0.02
						c-0.88,0.02-1.77,0.05-2.65,0.09c-0.44,0.02-0.88,0.04-1.33,0.06c-1.32,0.08-2.64,0.17-3.96,0.29
						c-3.08,0.28-6.15,0.68-9.2,1.21c-1.31,0.23-2.61,0.47-3.91,0.75c-1.29,0.27-2.59,0.56-3.88,0.88
						c-0.86,0.21-1.71,0.43-2.57,0.66c-0.43,0.11-0.85,0.23-1.28,0.35c-0.43,0.12-0.86,0.24-1.28,0.37
						c-0.43,0.12-0.85,0.26-1.27,0.38c-0.38,0.12-0.75,0.24-1.13,0.35c-0.47,0.15-0.94,0.31-1.41,0.46
						c-0.42,0.14-0.84,0.28-1.26,0.43c-0.42,0.15-0.84,0.29-1.26,0.45c-0.42,0.15-0.85,0.31-1.28,0.47
						c-0.41,0.15-0.82,0.31-1.22,0.46c-0.83,0.32-1.66,0.65-2.49,0.99c-0.82,0.34-1.64,0.69-2.46,1.05
						c-0.77,0.34-1.54,0.69-2.31,1.05c-0.04,0.02-0.09,0.05-0.13,0.06c-0.79,0.37-1.58,0.75-2.36,1.15
						c-0.83,0.42-1.65,0.84-2.47,1.27c-0.29,0.16-0.59,0.32-0.89,0.48c-0.49,0.26-0.97,0.53-1.46,0.8
						c-0.84,0.47-1.68,0.96-2.51,1.45c-0.72,0.43-1.43,0.87-2.15,1.31c-0.28,0.17-0.56,0.35-0.85,0.53
						c-0.48,0.3-0.96,0.62-1.44,0.93c-0.33,0.22-0.67,0.44-1,0.66c-1.19,0.8-2.36,1.63-3.52,2.48c-0.36,0.26-0.71,0.52-1.06,0.78
						c-0.37,0.27-0.73,0.55-1.09,0.83c-1.15,0.87-2.28,1.78-3.39,2.71c-0.3,0.25-0.6,0.5-0.9,0.76c-0.31,0.25-0.61,0.52-0.91,0.78
						c-0.4,0.35-0.8,0.7-1.2,1.05c-0.34,0.3-0.67,0.6-1.01,0.91c-0.4,0.36-0.8,0.73-1.19,1.1c-0.27,0.24-0.53,0.49-0.78,0.74
						c-0.62,0.59-1.23,1.19-1.84,1.8c-0.24,0.24-0.48,0.48-0.71,0.72c-0.78,0.79-1.55,1.6-2.31,2.43c-0.33,0.35-0.66,0.71-0.99,1.08
						c-0.42,0.46-0.83,0.93-1.24,1.39c-0.55,0.64-1.11,1.28-1.65,1.93c-0.32,0.38-0.63,0.76-0.93,1.14
						c-0.62,0.76-1.23,1.53-1.83,2.3c-0.55,0.72-1.1,1.44-1.63,2.16c-1.28,1.74-2.5,3.5-3.66,5.29c-0.19,0.28-0.37,0.56-0.55,0.85
						c-0.15,0.24-0.3,0.48-0.45,0.71c-0.19,0.3-0.38,0.6-0.56,0.91c-0.61,0.99-1.2,1.98-1.78,2.98c-0.19,0.33-0.39,0.67-0.57,1
						c-0.15,0.27-0.3,0.53-0.45,0.79c-2.74,4.97-5.07,10.09-7.01,15.31c-0.1,0.26-0.19,0.51-0.28,0.77
						c-0.22,0.61-0.44,1.21-0.64,1.82c-0.21,0.61-0.42,1.24-0.62,1.85c-0.22,0.67-0.43,1.34-0.63,2.02c-0.1,0.34-0.2,0.68-0.3,1.02
						c-0.32,1.06-0.62,2.13-0.89,3.21c-0.07,0.26-0.14,0.53-0.21,0.79c-0.04,0.17-0.08,0.35-0.13,0.52
						c-0.23,0.92-0.45,1.85-0.66,2.77c-0.16,0.7-0.31,1.41-0.45,2.11c-0.02,0.11-0.04,0.22-0.07,0.34
						c-0.06,0.33-0.13,0.65-0.19,0.98c-0.1,0.54-0.2,1.08-0.3,1.61c-0.02,0.12-0.04,0.24-0.06,0.35c-0.05,0.27-0.09,0.53-0.13,0.79
						c-0.16,0.97-0.31,1.95-0.45,2.93c-0.06,0.41-0.12,0.83-0.17,1.24c-0.01,0.09-0.03,0.19-0.03,0.29
						c-0.1,0.74-0.18,1.49-0.26,2.24c-0.02,0.16-0.04,0.33-0.05,0.49c-0.05,0.4-0.08,0.8-0.11,1.2c-0.04,0.45-0.08,0.91-0.12,1.36
						c-0.02,0.28-0.04,0.55-0.06,0.82c-0.04,0.55-0.08,1.1-0.11,1.65c-0.06,1-0.1,2-0.12,3c-0.02,0.36-0.03,0.72-0.03,1.08
						c-0.01,0.55-0.02,1.11-0.02,1.66c0,0.45-0.01,0.91,0,1.37c0,0.54,0.01,1.07,0.03,1.62c0,0.2,0,0.41,0.01,0.61
						c0.01,0.69,0.04,1.38,0.07,2.07c0.02,0.54,0.05,1.08,0.08,1.62c0.12,2.17,0.31,4.33,0.56,6.49c0.07,0.54,0.13,1.08,0.2,1.62
						c0.07,0.55,0.15,1.1,0.23,1.64c0.08,0.53,0.15,1.06,0.24,1.58c0.09,0.54,0.17,1.07,0.27,1.61c0.07,0.42,0.14,0.83,0.22,1.25
						c0.04,0.26,0.09,0.51,0.14,0.76c0.07,0.4,0.15,0.8,0.24,1.19c0.12,0.6,0.25,1.21,0.38,1.81c0.1,0.46,0.21,0.92,0.31,1.38
						c0.35,1.5,0.73,3,1.14,4.5c0.48,1.76,1.01,3.52,1.58,5.26c0.29,0.87,0.58,1.74,0.89,2.6c0.05,0.13,0.1,0.26,0.14,0.39
						c0.16,0.45,0.32,0.89,0.49,1.33c0.19,0.51,0.39,1.02,0.58,1.53c0.15,0.38,0.3,0.77,0.46,1.15c0.25,0.64,0.52,1.26,0.78,1.89
						c0.64,1.52,1.31,3.02,2.03,4.5c0.21,0.45,0.43,0.9,0.65,1.35c0.27,0.56,0.56,1.12,0.84,1.67c0.02,0.04,0.04,0.08,0.06,0.12
						c0.47,0.92,0.96,1.84,1.46,2.74c0.24,0.44,0.49,0.88,0.73,1.32c0.06,0.1,0.12,0.21,0.18,0.31c0.23,0.4,0.47,0.81,0.7,1.21
						c0.02,0.03,0.03,0.06,0.05,0.08c0.25,0.42,0.5,0.85,0.76,1.27c0.03,0.04,0.05,0.08,0.08,0.13c0.58,0.95,1.17,1.89,1.77,2.82
						c0.27,0.41,0.54,0.83,0.82,1.24c0.25,0.38,0.5,0.75,0.76,1.12c0.2,0.29,0.4,0.59,0.61,0.89c0.55,0.78,1.1,1.55,1.66,2.32
						c0.32,0.43,0.65,0.86,0.97,1.29c0.24,0.32,0.49,0.65,0.74,0.96c0.2,0.26,0.4,0.52,0.61,0.79c0.08,0.11,0.17,0.22,0.26,0.32
						c0.16,0.2,0.31,0.39,0.47,0.59c0.31,0.38,0.62,0.76,0.94,1.14c0.07,0.08,0.14,0.17,0.21,0.25c0.34,0.41,0.68,0.81,1.03,1.21
						c0.03,0.03,0.05,0.07,0.09,0.1c0.34,0.39,0.69,0.79,1.03,1.18c0.37,0.42,0.74,0.84,1.12,1.25c0.42,0.46,0.85,0.93,1.28,1.39
						c0.29,0.31,0.59,0.63,0.89,0.93c0.91,0.95,1.84,1.87,2.79,2.79c0.36,0.35,0.72,0.7,1.09,1.04c0.47,0.45,0.96,0.89,1.45,1.33
						c0.35,0.32,0.71,0.65,1.06,0.97l0.09,0.07c0.27,0.25,0.55,0.49,0.83,0.73c0.22,0.19,0.44,0.38,0.67,0.57
						c0.37,0.32,0.75,0.64,1.12,0.95c0.7,0.58,1.41,1.16,2.12,1.73c0.47,0.37,0.95,0.75,1.43,1.11c0.35,0.27,0.7,0.54,1.06,0.8
						c0.28,0.21,0.57,0.43,0.86,0.64c0.32,0.25,0.65,0.48,0.98,0.71c0.37,0.27,0.73,0.53,1.1,0.78c0.37,0.26,0.74,0.51,1.1,0.77
						c-0.4-0.31-0.81-0.63-1.2-0.96c-9.88-8.25-15.17-19.94-15.6-31.86c-0.1-2.59,0.04-5.18,0.41-7.75c0,0,0.01-0.01,0-0.02
						c0.42-2.93,1.14-5.83,2.16-8.65c1.68-4.63,4.18-9.06,7.53-13.06c1.31-1.56,2.7-3.02,4.17-4.34
						c6.79-6.18,15.17-9.87,23.86-10.95c2.21-0.28,4.45-0.39,6.68-0.32c0.02,0,0.03,0,0.05,0c5.68-0.44,11.32-1.31,16.89-2.6
						c-7.89-10.42-10.57-23.76-7.68-36.18c1.14,10.86,6.34,21.3,15.39,28.85c1.6,1.34,3.27,2.54,4.99,3.6
						c17.48,10.86,40.52,7.99,54.77-7.31c-8.42,2.61-17.96,1.02-25.23-5.05c-0.74-0.61-1.43-1.26-2.08-1.93
						c7.86-5.57,15.13-12.24,21.6-19.98c3.37-4.04,6.42-8.24,9.14-12.58c1.61-2.58,3.12-5.2,4.5-7.86c0-0.01,0.01-0.03,0.02-0.04
						c2.74-5.25,5.03-10.67,6.89-16.19c3.29-9.76,5.21-19.83,5.77-29.96C245.71,38.17,245.33,37.89,244.95,37.61"/>
				</defs>
				<clipPath id="SVGID_24_">
					<use xlink:href="#SVGID_23_"  style="overflow:visible;"/>
				</clipPath>
				
					<linearGradient id="SVGID_25_" gradientUnits="userSpaceOnUse" x1="-752.496" y1="-364.0746" x2="-751.496" y2="-364.0746" gradientTransform="matrix(95.1568 83.5662 83.5662 -95.1568 102124.2422 28297.2871)">
					<stop  offset="0" style="stop-color:#88F1B8"/>
					<stop  offset="1" style="stop-color:#3E6A73"/>
				</linearGradient>
				<polygon class="st8" points="165.48,-33.79 284.23,70.49 131.4,244.51 12.66,140.23 				"/>
			</g>
			<g class="st1">
				<defs>
					
						<rect id="SVGID_26_" x="-7.86" y="-20.2" transform="matrix(0.641 -0.7675 0.7675 0.641 -70.9319 188.864)" width="348.6" height="380.93"/>
				</defs>
				<clipPath id="SVGID_27_">
					<use xlink:href="#SVGID_26_"  style="overflow:visible;"/>
				</clipPath>
				<g class="st9">
					<g>
						<defs>
							
								<rect id="SVGID_28_" x="174.73" y="71.86" transform="matrix(0.641 -0.7675 0.7675 0.641 12.4746 198.0344)" width="86.44" height="27.63"/>
						</defs>
						<clipPath id="SVGID_29_">
							<use xlink:href="#SVGID_28_"  style="overflow:visible;"/>
						</clipPath>
						<g class="st10">
							<defs>
								<path id="SVGID_30_" d="M198.16,125.05c0.2,0.21,0.42,0.42,0.63,0.61c-1.3-0.86-2.55-1.8-3.77-2.82
									c-5.55-4.63-9.66-10.36-12.26-16.59c17.67-1.79,34.66-10.22,46.94-24.92c7.46-8.94,12.34-19.18,14.71-29.81
									c0.05,0.03,0.12,0.07,0.17,0.1c-0.98,5.67-2.4,11.28-4.26,16.79c-1.86,5.52-4.16,10.94-6.9,16.19
									c0,0.01-0.01,0.03-0.02,0.04c-1.38,2.66-2.89,5.29-4.5,7.85c-2.72,4.34-5.77,8.54-9.14,12.58
									C213.29,112.81,206.02,119.48,198.16,125.05"/>
							</defs>
							<clipPath id="SVGID_31_">
								<use xlink:href="#SVGID_30_"  style="overflow:visible;"/>
							</clipPath>
							
								<linearGradient id="SVGID_32_" gradientUnits="userSpaceOnUse" x1="-752.496" y1="-364.068" x2="-751.496" y2="-364.068" gradientTransform="matrix(21.2086 17.7137 17.7137 -21.2086 22615.6953 5684.9688)">
								<stop  offset="0" style="stop-color:#88F1B8"/>
								<stop  offset="1" style="stop-color:#3E6A73"/>
							</linearGradient>
							<polygon class="st11" points="235.05,43.65 256.26,61.37 200.85,127.71 179.64,109.99 							"/>
						</g>
					</g>
				</g>
				<g class="st9">
					<g>
						<defs>
							
								<rect id="SVGID_33_" x="66.68" y="130.94" transform="matrix(0.641 -0.7675 0.7675 0.641 -74.2733 147.5396)" width="107.83" height="44.47"/>
						</defs>
						<clipPath id="SVGID_34_">
							<use xlink:href="#SVGID_33_"  style="overflow:visible;"/>
						</clipPath>
						<g class="st12">
							<defs>
								<path id="SVGID_35_" d="M99.51,205.82c-10.77-23.86-7.77-52.79,10.13-74.22c10.78-12.9,25.2-20.98,40.51-23.98
									c-2.62,12.22,0.1,25.24,7.84,35.45c-5.57,1.28-11.22,2.15-16.89,2.59c-0.02,0-0.04,0-0.05,0c-2.23-0.06-4.47,0.05-6.68,0.33
									c-8.69,1.08-17.07,4.77-23.86,10.95c-1.48,1.33-2.87,2.78-4.17,4.34c-3.35,4.01-5.85,8.43-7.53,13.07
									c-1.02,2.82-1.74,5.72-2.16,8.65c0.01,0.01,0,0.02,0,0.02c-0.38,2.57-0.5,5.17-0.41,7.75
									C96.44,195.91,97.54,201.02,99.51,205.82"/>
							</defs>
							<clipPath id="SVGID_36_">
								<use xlink:href="#SVGID_35_"  style="overflow:visible;"/>
							</clipPath>
							
								<linearGradient id="SVGID_37_" gradientUnits="userSpaceOnUse" x1="-752.496" y1="-364.068" x2="-751.4961" y2="-364.068" gradientTransform="matrix(34.1296 28.5056 28.5056 -34.1296 36163.8711 9163.7529)">
								<stop  offset="0" style="stop-color:#88F1B8"/>
								<stop  offset="1" style="stop-color:#3E6A73"/>
							</linearGradient>
							<polygon class="st13" points="138.09,97.54 172.22,126.04 103.1,208.81 68.97,180.3 							"/>
						</g>
					</g>
				</g>
				<g class="st14">
					<g>
						<defs>
							
								<rect id="SVGID_38_" x="51.05" y="21.4" transform="matrix(0.641 -0.7675 0.7675 0.641 -9.7811 142.5213)" width="192.84" height="120.64"/>
						</defs>
						<clipPath id="SVGID_39_">
							<use xlink:href="#SVGID_38_"  style="overflow:visible;"/>
						</clipPath>
						<path class="st15" d="M88.84,82.51C75.2,98.83,66.9,117.86,63.76,137.43c-0.04-0.46-0.07-0.9-0.09-1.34
							c-0.03-0.54-0.06-1.09-0.08-1.62c-0.03-0.7-0.06-1.38-0.07-2.07c0-0.21-0.02-0.42-0.01-0.62c-0.02-0.53-0.03-1.07-0.03-1.62
							c0-0.45,0.01-0.91,0-1.36c0-0.56,0-1.11,0.02-1.66c0-0.36,0.01-0.73,0.03-1.08c0.02-1,0.07-2,0.12-3
							c0.03-0.55,0.06-1.1,0.11-1.64c0.02-0.28,0.04-0.55,0.06-0.82c0.03-0.46,0.07-0.92,0.12-1.37c0.03-0.4,0.06-0.79,0.11-1.21
							c0.01-0.16,0.04-0.32,0.05-0.49c0.07-0.74,0.16-1.49,0.26-2.24c0.01-0.09,0.01-0.19,0.03-0.28c0.04-0.41,0.1-0.83,0.16-1.24
							c0.14-0.98,0.29-1.96,0.45-2.94l0.13-0.79c0.03-0.11,0.05-0.23,0.06-0.35c0.1-0.54,0.2-1.09,0.3-1.62
							c0.06-0.33,0.12-0.65,0.19-0.98c0.02-0.11,0.04-0.23,0.06-0.33c0.15-0.7,0.3-1.4,0.46-2.11c0.2-0.92,0.42-1.84,0.65-2.77
							c0.05-0.17,0.09-0.35,0.13-0.52c0.06-0.27,0.14-0.54,0.2-0.8c0.28-1.07,0.58-2.15,0.9-3.2c0.1-0.34,0.2-0.68,0.29-1.02
							c0.21-0.67,0.41-1.34,0.64-2.02c0.2-0.61,0.4-1.23,0.62-1.85c0.21-0.61,0.41-1.21,0.65-1.82c0.09-0.25,0.18-0.51,0.27-0.77
							c1.94-5.21,4.27-10.34,7-15.31c0.15-0.26,0.3-0.52,0.46-0.79c0.18-0.33,0.38-0.67,0.56-1c0.58-1,1.16-2,1.78-2.98
							c0.18-0.3,0.37-0.6,0.56-0.91c0.15-0.23,0.31-0.47,0.46-0.71c0.18-0.28,0.37-0.57,0.55-0.84c1.16-1.8,2.38-3.56,3.66-5.3
							c0.54-0.72,1.08-1.44,1.64-2.16c0.59-0.77,1.2-1.53,1.82-2.3c0.31-0.38,0.61-0.77,0.93-1.15c0.54-0.65,1.1-1.29,1.65-1.93
							c0.41-0.46,0.82-0.94,1.24-1.39c0.32-0.37,0.66-0.73,0.99-1.08c0.76-0.83,1.53-1.63,2.31-2.42c0.23-0.24,0.47-0.48,0.71-0.73
							c0.61-0.61,1.21-1.21,1.84-1.81c0.26-0.25,0.52-0.49,0.79-0.73c0.39-0.38,0.79-0.75,1.19-1.11l1.01-0.92
							c0.4-0.35,0.8-0.7,1.21-1.05c0.29-0.27,0.61-0.53,0.91-0.78c0.3-0.26,0.59-0.51,0.9-0.76c1.11-0.92,2.25-1.83,3.39-2.7
							c0.36-0.29,0.72-0.56,1.1-0.83c0.35-0.27,0.7-0.52,1.05-0.78c1.16-0.85,2.34-1.67,3.53-2.48c0.34-0.22,0.67-0.45,1-0.66
							c0.47-0.32,0.95-0.64,1.44-0.94c0.28-0.17,0.57-0.36,0.84-0.54c0.72-0.44,1.43-0.88,2.15-1.3c0.83-0.49,1.67-0.98,2.51-1.45
							c0.49-0.27,0.97-0.54,1.46-0.8c0.3-0.16,0.59-0.32,0.89-0.48c0.82-0.43,1.64-0.85,2.46-1.27c0.79-0.39,1.57-0.77,2.36-1.15
							c0.05-0.01,0.09-0.05,0.14-0.06c0.77-0.35,1.54-0.7,2.31-1.04c0.82-0.36,1.64-0.72,2.45-1.06c0.82-0.33,1.66-0.67,2.49-0.99
							c0.41-0.16,0.81-0.32,1.22-0.47c0.42-0.16,0.86-0.32,1.28-0.47c0.42-0.14,0.83-0.3,1.26-0.45c0.42-0.14,0.84-0.28,1.26-0.42
							c0.46-0.16,0.95-0.32,1.41-0.46c0.38-0.12,0.75-0.25,1.13-0.36c0.42-0.13,0.84-0.25,1.27-0.38c0.43-0.12,0.85-0.25,1.27-0.37
							c0.43-0.12,0.85-0.24,1.28-0.35c0.86-0.23,1.72-0.46,2.58-0.66c1.29-0.32,2.58-0.61,3.88-0.88c1.31-0.27,2.6-0.52,3.91-0.75
							c3.04-0.53,6.12-0.93,9.2-1.21c1.32-0.11,2.65-0.22,3.96-0.29c0.44-0.03,0.9-0.04,1.33-0.06c0.88-0.04,1.76-0.07,2.65-0.09
							c0.44,0,0.88-0.01,1.32-0.01c0.44-0.01,0.88-0.01,1.33-0.01c0.45,0,0.88,0.01,1.33,0.01c0.72,0.02,1.46,0.03,2.19,0.07
							c0.16-0.01,0.31,0,0.46,0c0.45,0.02,0.89,0.03,1.33,0.06c1.77,0.09,3.54,0.22,5.31,0.38c0.43,0.04,0.87,0.09,1.31,0.13
							c0.44,0.06,0.89,0.1,1.33,0.16c0.44,0.05,0.88,0.11,1.32,0.16c0.44,0.07,0.88,0.12,1.32,0.19c0.44,0.06,0.87,0.13,1.32,0.2
							c0.89,0.13,1.76,0.28,2.62,0.43c0.52,0.09,1.03,0.19,1.53,0.29c0.81,0.16,1.6,0.32,2.41,0.49c2.62,0.57,5.22,1.22,7.8,1.97
							c0.86,0.26,1.72,0.52,2.57,0.79c0.47,0.14,0.93,0.3,1.41,0.45c0.69,0.24,1.39,0.48,2.08,0.71c0.54,0.2,1.08,0.39,1.62,0.59
							c0.29,0.11,0.58,0.21,0.86,0.32c0.98,0.37,1.95,0.76,2.93,1.16c0.42,0.16,0.84,0.35,1.25,0.53c0.43,0.18,0.83,0.36,1.25,0.54
							c0.42,0.19,0.83,0.36,1.25,0.55l1.33,0.62c0.38,0.18,0.77,0.37,1.15,0.55c0.41,0.19,0.82,0.39,1.23,0.6
							c0.4,0.19,0.79,0.4,1.19,0.6c0.41,0.22,0.83,0.44,1.25,0.66c0.41,0.21,0.81,0.43,1.22,0.65c0.8,0.44,1.61,0.9,2.4,1.35
							c0.41,0.23,0.8,0.46,1.2,0.7c0.4,0.24,0.79,0.47,1.19,0.72c0.4,0.24,0.79,0.49,1.19,0.73c1.09,0.68,2.18,1.39,3.26,2.12
							c0.17,0.12,0.35,0.24,0.51,0.35c0.29,0.2,0.59,0.41,0.89,0.62c0.39,0.27,0.77,0.53,1.15,0.81c0.38,0.26,0.76,0.54,1.14,0.83
							c0.38,0.28,0.76,0.56,1.14,0.84c-0.45,8.08-1.77,16.14-3.95,24.02C194.1,28.45,127.21,36.56,88.84,82.51"/>
					</g>
				</g>
			</g>
		</g>
	</g>
</g>
</svg>
